<svg width="11" height="13" viewBox="0 0 11 13" fill="none" xmlns="http://www.w3.org/2000/svg">
<path fill-rule="evenodd" clip-rule="evenodd" d="M1.50914 0C0.596767 0 0 0.765466 0 1.77208C0 2.75676 0.579501 3.54545 1.47374 3.54545H1.49156C2.4216 3.54545 3 2.75691 3 1.77208C2.98247 0.765466 2.4216 0 1.50914 0ZM11 7.70314V13H8.70733V8.0579C8.70733 6.8164 8.37572 5.96913 7.54585 5.96913C6.91235 5.96913 6.53535 6.54012 6.36949 7.09247C6.30901 7.28993 6.29344 7.56477 6.29344 7.84117V13H4C4 13 4.03089 4.62969 4 3.76247H6.29322V5.07186C6.29102 5.07648 6.28852 5.08127 6.28602 5.08605C6.28323 5.09138 6.28046 5.09669 6.27815 5.1017H6.29322V5.07186C6.5979 4.44333 7.14202 3.54545 8.35993 3.54545C9.86883 3.54542 11 4.86573 11 7.70314ZM2 13H0V4.72727H2V13Z" fill="#001832"/>
</svg>
