<svg width="56" height="22" viewBox="0 0 56 22" fill="none" xmlns="http://www.w3.org/2000/svg">
<path id="logo/dark" fill-rule="evenodd" clip-rule="evenodd" d="M1.95178 17.4973H0V0H1.95178V17.4973ZM13.327 4.45599C15.1995 4.45599 16.7903 5.117 18.0994 6.43902C19.4085 7.76105 20.0631 9.34746 20.0631 11.1983C20.0631 13.0491 19.4164 14.6317 18.1232 15.9459C16.8299 17.2602 15.2312 17.9173 13.327 17.9173C11.4229 17.9173 9.8202 17.2602 8.51901 15.9459C7.21782 14.6317 6.56723 13.0491 6.56723 11.1983C6.56723 9.34746 7.22179 7.76105 8.53091 6.43902C9.84004 5.117 11.4387 4.45599 13.327 4.45599ZM13.327 16.0742C14.6441 16.0742 15.7668 15.6038 16.6951 14.6628C17.6233 13.7218 18.0875 12.5864 18.0875 11.2566C18.0875 9.92682 17.6154 8.7759 16.6712 7.80382C15.7271 6.83174 14.6084 6.34571 13.3151 6.34571C12.0219 6.34571 10.9072 6.83174 9.97094 7.80382C9.03472 8.7759 8.56661 9.93071 8.56661 11.2683C8.56661 12.6059 9.01885 13.7412 9.92334 14.6744C10.8278 15.6076 11.9624 16.0742 13.327 16.0742ZM37.8887 14.5111C37.8887 16.1909 37.7419 17.4351 37.4484 18.2439C37.1548 19.0527 36.7105 19.737 36.1155 20.2969C35.5204 20.8568 34.8063 21.2807 33.9733 21.5684C33.1402 21.8561 32.2238 22 31.2241 22C27.8442 22 25.5909 20.6002 24.4643 17.8006H26.5589C27.4792 19.4182 29.0105 20.2269 31.1527 20.2269C32.1365 20.2269 33.0172 20.0403 33.7947 19.667C34.5723 19.2937 35.1197 18.796 35.4371 18.1739C35.7545 17.5518 35.9131 16.5953 35.9131 15.3043V15.1877C35.2943 15.872 34.5485 16.3931 33.6757 16.7508C32.803 17.1085 31.8985 17.2874 30.9623 17.2874C29.0898 17.2874 27.5229 16.6575 26.2614 15.3977C24.9998 14.1379 24.377 12.6525 24.3929 10.9417C24.377 9.15305 25.0355 7.62496 26.3685 6.35737C27.7014 5.08978 29.2842 4.45599 31.117 4.45599C32.9498 4.45599 34.5485 5.18698 35.9131 6.64899V4.78261H37.8887V14.5111ZM35.9845 10.9417C35.9845 9.60409 35.5283 8.49983 34.6159 7.62884C33.7035 6.75786 32.5888 6.32237 31.2717 6.32237C29.8753 6.32237 28.705 6.79285 27.7609 7.73383C26.8167 8.6748 26.3447 9.7674 26.3447 11.0117C26.3447 12.2559 26.7969 13.3096 27.7014 14.1729C28.6059 15.0361 29.7642 15.4677 31.1765 15.4677C32.5888 15.4677 33.7432 15.0438 34.6397 14.1962C35.5363 13.3485 35.9845 12.2637 35.9845 10.9417ZM49.264 4.45599C51.1364 4.45599 52.7272 5.117 54.0363 6.43902C55.3454 7.76105 56 9.34746 56 11.1983C56 13.0491 55.3534 14.6317 54.0601 15.9459C52.7669 17.2602 51.1682 17.9173 49.264 17.9173C47.3598 17.9173 45.7571 17.2602 44.4559 15.9459C43.1548 14.6317 42.5042 13.0491 42.5042 11.1983C42.5042 9.34746 43.1587 7.76105 44.4678 6.43902C45.777 5.117 47.3757 4.45599 49.264 4.45599ZM49.264 16.0742C50.581 16.0742 51.7037 15.6038 52.632 14.6628C53.5603 13.7218 54.0244 12.5864 54.0244 11.2566C54.0244 9.92682 53.5523 8.7759 52.6082 7.80382C51.664 6.83174 50.5453 6.34571 49.2521 6.34571C47.9588 6.34571 46.8441 6.83174 45.9079 7.80382C44.9717 8.7759 44.5036 9.93071 44.5036 11.2683C44.5036 12.6059 44.9558 13.7412 45.8603 14.6744C46.7648 15.6076 47.8993 16.0742 49.264 16.0742Z" fill="#263396"/>
</svg>
