<svg width="16" height="13" viewBox="0 0 16 13" fill="none" xmlns="http://www.w3.org/2000/svg">
<path d="M14.625 3.23083C14.5 8.84043 10.875 12.7428 5.37498 12.9867C3.12499 13.1086 1.5 12.3769 0 11.5233C1.62499 11.7672 3.74999 11.1575 4.87499 10.1819C3.24999 10.0599 2.24999 9.20627 1.74999 7.86485C2.24999 7.98679 2.74999 7.86485 3.12499 7.86485C1.62499 7.37705 0.624998 6.52342 0.499998 4.57225C0.874997 4.81615 1.375 4.9381 1.87499 4.9381C0.749998 4.32836 0 2.01135 0.874997 0.547975C2.49999 2.25524 4.49999 3.71862 7.74998 3.96251C6.87498 0.547975 11.625 -1.28124 13.5 1.03577C14.375 0.913818 15 0.547975 15.625 0.304079C15.375 1.15771 14.875 1.64551 14.25 2.1333C14.875 2.01135 15.5 1.8894 16 1.64551C15.875 2.25524 15.25 2.74304 14.625 3.23083Z" fill="white"/>
</svg>
